<svg xmlns="http://www.w3.org/2000/svg" xmlns:xlink="http://www.w3.org/1999/xlink" id="processonSvg1000" viewBox="5.399993896484375 -9.699996948242188 935.0 553.7000122070312" width="935.0" height="553.7000122070312"><defs id="ProcessOnDefs1001"><marker id="ProcessOnMarker1055" markerUnits="userSpaceOnUse" orient="auto" markerWidth="16.23606797749979" markerHeight="10.550836550532098" viewBox="-1.0 -1.3763819204711736 16.23606797749979 10.550836550532098" refX="-1.0" refY="3.8990363547948754"><path id="ProcessOnPath1056" d="M12.0 3.8990363547948754L0.0 7.798072709589751V0.0Z" stroke="#323232" stroke-width="2.0" fill="#323232" transform="matrix(1.0,0.0,0.0,1.0,0.0,0.0)"/></marker><marker id="ProcessOnMarker1059" markerUnits="userSpaceOnUse" orient="auto" markerWidth="16.23606797749979" markerHeight="10.550836550532098" viewBox="-1.0 -1.3763819204711736 16.23606797749979 10.550836550532098" refX="-1.0" refY="3.8990363547948754"><path id="ProcessOnPath1060" d="M12.0 3.8990363547948754L0.0 7.798072709589751V0.0Z" stroke="#323232" stroke-width="2.0" fill="#323232" transform="matrix(1.0,0.0,0.0,1.0,0.0,0.0)"/></marker></defs><g id="ProcessOnG1002"><path id="ProcessOnPath1003" d="M5.399993896484375 -9.699996948242188H940.3999938964844V544.0000152587891H5.399993896484375V-9.699996948242188Z" fill="none"/><g id="ProcessOnG1004"><g id="ProcessOnG1005" transform="matrix(1.0,0.0,0.0,1.0,25.399993896484375,18.800003051757812)" opacity="1.0"><path id="ProcessOnPath1006" d="M0.0 0.0L147.0 0.0L147.0 43.0L0.0 43.0Z" stroke="none" stroke-width="0.0" stroke-dasharray="none" opacity="1.0" fill="none"/><g id="ProcessOnG1007" transform="matrix(1.0,0.0,0.0,1.0,0.0,-8.5)"><text id="ProcessOnText1008" fill="#000000" font-size="24" x="72.5" y="24.6" font-family="微软雅黑" font-weight="bold" font-style="normal" text-decoration="none" family="微软雅黑" text-anchor="middle" size="24">Screen Shot</text><text id="ProcessOnText1009" fill="#000000" font-size="24" x="72.5" y="54.6" font-family="微软雅黑" font-weight="bold" font-style="normal" text-decoration="none" family="微软雅黑" text-anchor="middle" size="24">基本流程</text></g></g><g id="ProcessOnG1010" transform="matrix(1.0,0.0,0.0,1.0,210.39999389648438,129.8000030517578)" opacity="1.0"><path id="ProcessOnPath1011" d="M0.0 0.0L100.0 0.0L100.0 70.0L0.0 70.0Z" stroke="#323232" stroke-width="2.0" stroke-dasharray="none" opacity="1.0" fill="#ffffff"/><g id="ProcessOnG1012" transform="matrix(1.0,0.0,0.0,1.0,10.0,26.875)"><text id="ProcessOnText1013" fill="#000000" font-size="13" x="39.0" y="13.325" font-family="微软雅黑" font-weight="bold" font-style="normal" text-decoration="none" family="微软雅黑" text-anchor="middle" size="13">Frame Win</text></g></g><g id="ProcessOnG1014" transform="matrix(1.0,0.0,0.0,1.0,210.39999389648438,270.8000030517578)" opacity="1.0"><path id="ProcessOnPath1015" d="M0.0 0.0L100.0 0.0L100.0 70.0L0.0 70.0Z" stroke="#323232" stroke-width="2.0" stroke-dasharray="none" opacity="1.0" fill="#ffffff"/><g id="ProcessOnG1016" transform="matrix(1.0,0.0,0.0,1.0,10.0,18.75)"><text id="ProcessOnText1017" fill="#000000" font-size="13" x="39.0" y="13.325" font-family="微软雅黑" font-weight="bold" font-style="normal" text-decoration="none" family="微软雅黑" text-anchor="middle" size="13">ScreenShot </text><text id="ProcessOnText1018" fill="#000000" font-size="13" x="39.0" y="29.575" font-family="微软雅黑" font-weight="bold" font-style="normal" text-decoration="none" family="微软雅黑" text-anchor="middle" size="13">Win</text></g></g><g id="ProcessOnG1019" transform="matrix(1.0,0.0,0.0,1.0,210.39999389648438,404.8000030517578)" opacity="1.0"><path id="ProcessOnPath1020" d="M0.0 0.0L100.0 0.0L100.0 70.0L0.0 70.0Z" stroke="#323232" stroke-width="2.0" stroke-dasharray="none" opacity="1.0" fill="#ffffff"/><g id="ProcessOnG1021" transform="matrix(1.0,0.0,0.0,1.0,10.0,26.875)"><text id="ProcessOnText1022" fill="#000000" font-size="13" x="39.0" y="13.325" font-family="微软雅黑" font-weight="bold" font-style="normal" text-decoration="none" family="微软雅黑" text-anchor="middle" size="13">Save Win</text></g></g><g id="ProcessOnG1023" transform="matrix(1.0,0.0,0.0,1.0,76.39999389648438,144.8000030517578)" opacity="1.0"><path id="ProcessOnPath1024" d="M0.0 0.0L160.0 0.0L160.0 40.0L0.0 40.0Z" stroke="none" stroke-width="0.0" stroke-dasharray="none" opacity="1.0" fill="none"/><g id="ProcessOnG1025" transform="matrix(1.0,0.0,0.0,1.0,0.0,11.875)"><text id="ProcessOnText1026" fill="#000000" font-size="13" x="79.0" y="13.325" font-family="微软雅黑" font-weight="bold" font-style="normal" text-decoration="none" family="微软雅黑" text-anchor="middle" size="13">主要窗口</text></g></g><g id="ProcessOnG1027" transform="matrix(1.0,0.0,0.0,1.0,76.39999389648438,277.8000030517578)" opacity="1.0"><path id="ProcessOnPath1028" d="M0.0 0.0L160.0 0.0L160.0 40.0L0.0 40.0Z" stroke="none" stroke-width="0.0" stroke-dasharray="none" opacity="1.0" fill="none"/><g id="ProcessOnG1029" transform="matrix(1.0,0.0,0.0,1.0,0.0,11.875)"><text id="ProcessOnText1030" fill="#000000" font-size="13" x="79.0" y="13.325" font-family="微软雅黑" font-weight="bold" font-style="normal" text-decoration="none" family="微软雅黑" text-anchor="middle" size="13">截图窗口</text></g></g><g id="ProcessOnG1031" transform="matrix(1.0,0.0,0.0,1.0,76.39999389648438,419.8000030517578)" opacity="1.0"><path id="ProcessOnPath1032" d="M0.0 0.0L160.0 0.0L160.0 40.0L0.0 40.0Z" stroke="none" stroke-width="0.0" stroke-dasharray="none" opacity="1.0" fill="none"/><g id="ProcessOnG1033" transform="matrix(1.0,0.0,0.0,1.0,0.0,11.875)"><text id="ProcessOnText1034" fill="#000000" font-size="13" x="79.0" y="13.325" font-family="微软雅黑" font-weight="bold" font-style="normal" text-decoration="none" family="微软雅黑" text-anchor="middle" size="13">保存图片窗口</text></g></g><g id="ProcessOnG1035" transform="matrix(1.0,0.0,0.0,1.0,247.39999389648438,202.8000030517578)" opacity="1.0"><path id="ProcessOnPath1036" d="M8.58 0.0L17.42 0.0L17.42 51.0L26.0 51.0L13.0 64.0L0.0 51.0L8.58 51.0L8.58 0.0Z" stroke="#323232" stroke-width="2.0" stroke-dasharray="none" opacity="1.0" fill="#ffffff"/><g id="ProcessOnG1037" transform="matrix(1.0,0.0,0.0,1.0,-5.2,11.3)"><text id="ProcessOnText1038" fill="#ff0000" font-size="14" x="17.2" y="14.350000000000001" font-family="微软雅黑" font-weight="bold" font-style="normal" text-decoration="none" family="微软雅黑" text-anchor="middle" size="14">子窗</text><text id="ProcessOnText1039" fill="#ff0000" font-size="14" x="17.2" y="31.85" font-family="微软雅黑" font-weight="bold" font-style="normal" text-decoration="none" family="微软雅黑" text-anchor="middle" size="14">口</text></g></g><g id="ProcessOnG1040" transform="matrix(1.0,0.0,0.0,1.0,247.39999389648438,340.8000030517578)" opacity="1.0"><path id="ProcessOnPath1041" d="M8.58 0.0L17.42 0.0L17.42 51.0L26.0 51.0L13.0 64.0L0.0 51.0L8.58 51.0L8.58 0.0Z" stroke="#323232" stroke-width="2.0" stroke-dasharray="none" opacity="1.0" fill="#ffffff"/><g id="ProcessOnG1042" transform="matrix(1.0,0.0,0.0,1.0,-5.2,11.3)"><text id="ProcessOnText1043" fill="#ff0000" font-size="14" x="17.2" y="14.350000000000001" font-family="微软雅黑" font-weight="bold" font-style="normal" text-decoration="none" family="微软雅黑" text-anchor="middle" size="14">子窗</text><text id="ProcessOnText1044" fill="#ff0000" font-size="14" x="17.2" y="31.85" font-family="微软雅黑" font-weight="bold" font-style="normal" text-decoration="none" family="微软雅黑" text-anchor="middle" size="14">口</text></g></g><g id="ProcessOnG1045" transform="matrix(1.0,0.0,0.0,1.0,332.3999938964844,214.8000030517578)" opacity="1.0"><path id="ProcessOnPath1046" d="M0.0 0.0L160.0 0.0L160.0 40.0L0.0 40.0Z" stroke="none" stroke-width="0.0" stroke-dasharray="none" opacity="1.0" fill="none"/><g id="ProcessOnG1047" transform="matrix(1.0,0.0,0.0,1.0,0.0,10.625)"><text id="ProcessOnText1048" fill="#000000" font-size="15" x="79.0" y="15.375" font-family="微软雅黑" font-weight="bold" font-style="normal" text-decoration="none" family="微软雅黑" text-anchor="middle" size="15">点击“新建”触发</text></g></g><g id="ProcessOnG1049" transform="matrix(1.0,0.0,0.0,1.0,332.3999938964844,345.8000030517578)" opacity="1.0"><path id="ProcessOnPath1050" d="M0.0 0.0L160.0 0.0L160.0 40.0L0.0 40.0Z" stroke="none" stroke-width="0.0" stroke-dasharray="none" opacity="1.0" fill="none"/><g id="ProcessOnG1051" transform="matrix(1.0,0.0,0.0,1.0,0.0,10.625)"><text id="ProcessOnText1052" fill="#000000" font-size="15" x="79.0" y="15.375" font-family="微软雅黑" font-weight="bold" font-style="normal" text-decoration="none" family="微软雅黑" text-anchor="middle" size="15">截图完毕触发</text></g></g><g id="ProcessOnG1053"><path id="ProcessOnPath1054" d="M310.3999938964844 164.8000030517578L340.3999938964844 164.8000030517578L340.3999938964844 290.8000030517578L325.63606187398415 290.8000030517578" stroke="#323232" stroke-width="2.0" stroke-dasharray="none" fill="none" marker-end="url(#ProcessOnMarker1055)"/></g><g id="ProcessOnG1057"><path id="ProcessOnPath1058" d="M310.3999938964844 305.8000030517578L340.3999938964844 305.8000030517578L340.3999938964844 439.8000030517578L325.63606187398415 439.8000030517578" stroke="#323232" stroke-width="2.0" stroke-dasharray="none" fill="none" marker-end="url(#ProcessOnMarker1059)"/></g><g id="ProcessOnG1061" transform="matrix(1.0,0.0,0.0,1.0,466.3999938964844,92.90000915527344)" opacity="1.0"><path id="ProcessOnPath1062" d="M0.0 0.0L147.0 0.0L147.0 43.0L0.0 43.0Z" stroke="none" stroke-width="0.0" stroke-dasharray="none" opacity="1.0" fill="none"/><g id="ProcessOnG1063" transform="matrix(1.0,0.0,0.0,1.0,0.0,8.375)"><text id="ProcessOnText1064" fill="#000000" font-size="21" x="72.5" y="21.525" font-family="微软雅黑" font-weight="bold" font-style="normal" text-decoration="none" family="微软雅黑" text-anchor="middle" size="21">三个模块</text></g></g><g id="ProcessOnG1065" transform="matrix(1.0,0.0,0.0,1.0,25.399993896484375,86.80000305175781)" opacity="1.0"><path id="ProcessOnPath1066" d="M0.0 0.0L147.0 0.0L147.0 43.0L0.0 43.0Z" stroke="none" stroke-width="0.0" stroke-dasharray="none" opacity="1.0" fill="none"/><g id="ProcessOnG1067" transform="matrix(1.0,0.0,0.0,1.0,0.0,8.375)"><text id="ProcessOnText1068" fill="#000000" font-size="21" x="72.5" y="21.525" font-family="微软雅黑" font-weight="bold" font-style="normal" text-decoration="none" family="微软雅黑" text-anchor="middle" size="21">三个窗口</text></g></g><g id="ProcessOnG1069" transform="matrix(1.0,0.0,0.0,1.0,619.3999938964844,121.80000305175781)" opacity="1.0"><path id="ProcessOnPath1070" d="M0.0 4.0Q0.0 0.0 4.0 0.0L96.0 0.0Q100.0 0.0 100.0 4.0L100.0 66.0Q100.0 70.0 96.0 70.0L4.0 70.0Q0.0 70.0 0.0 66.0Z" stroke="#323232" stroke-width="2.0" stroke-dasharray="none" opacity="1.0" fill="#ffffff"/><g id="ProcessOnG1071" transform="matrix(1.0,0.0,0.0,1.0,10.0,26.875)"><text id="ProcessOnText1072" fill="#000000" font-size="13" x="39.0" y="13.325" font-family="微软雅黑" font-weight="bold" font-style="normal" text-decoration="none" family="微软雅黑" text-anchor="middle" size="13">main模块</text></g></g><g id="ProcessOnG1073" transform="matrix(1.0,0.0,0.0,1.0,656.3999938964844,86.80000305175781)" opacity="1.0"><path id="ProcessOnPath1074" d="M100.0 0.0Q91.0 0.0 91.0 9.0L91.0 61.0Q91.0 70.0 78.0 70.0Q91.0 70.0 91.0 79.0L91.0 131.0Q91.0 140.0 100.0 140.0" stroke="#323232" stroke-width="2.0" stroke-dasharray="none" opacity="1.0" fill="none"/><path id="ProcessOnPath1075" d="M0.0 0.0L100.0 0.0L100.0 140.0L0.0 140.0Z" stroke="none" stroke-width="0.0" stroke-dasharray="none" opacity="1.0" fill="none"/></g><g id="ProcessOnG1076" transform="matrix(1.0,0.0,0.0,1.0,756.3999938964844,104.80000305175781)" opacity="1.0"><path id="ProcessOnPath1077" d="M0.0 0.0L164.0 0.0L164.0 104.0L0.0 104.0Z" stroke="none" stroke-width="0.0" stroke-dasharray="none" opacity="1.0" fill="none"/><g id="ProcessOnG1078" transform="matrix(1.0,0.0,0.0,1.0,0.0,11.375)"><text id="ProcessOnText1079" fill="#000000" font-size="13" x="0.0" y="13.325" font-family="微软雅黑" font-weight="normal" font-style="normal" text-decoration="none" family="微软雅黑" text-anchor="start" size="13">三个窗口的注册、建立</text><text id="ProcessOnText1080" fill="#000000" font-size="13" x="0.0" y="29.575" font-family="微软雅黑" font-weight="normal" font-style="normal" text-decoration="none" family="微软雅黑" text-anchor="start" size="13"></text><text id="ProcessOnText1081" fill="#000000" font-size="13" x="0.0" y="45.825" font-family="微软雅黑" font-weight="normal" font-style="normal" text-decoration="none" family="微软雅黑" text-anchor="start" size="13"></text><text id="ProcessOnText1082" fill="#000000" font-size="13" x="0.0" y="62.075" font-family="微软雅黑" font-weight="normal" font-style="normal" text-decoration="none" family="微软雅黑" text-anchor="start" size="13"></text><text id="ProcessOnText1083" fill="#000000" font-size="13" x="0.0" y="78.325" font-family="微软雅黑" font-weight="normal" font-style="normal" text-decoration="none" family="微软雅黑" text-anchor="start" size="13">流程控制</text></g></g><g id="ProcessOnG1084" transform="matrix(1.0,0.0,0.0,1.0,619.3999938964844,272.1999969482422)" opacity="1.0"><path id="ProcessOnPath1085" d="M0.0 4.0Q0.0 0.0 4.0 0.0L96.0 0.0Q100.0 0.0 100.0 4.0L100.0 66.0Q100.0 70.0 96.0 70.0L4.0 70.0Q0.0 70.0 0.0 66.0Z" stroke="#323232" stroke-width="2.0" stroke-dasharray="none" opacity="1.0" fill="#ffffff"/><g id="ProcessOnG1086" transform="matrix(1.0,0.0,0.0,1.0,10.0,26.875)"><text id="ProcessOnText1087" fill="#000000" font-size="13" x="39.0" y="13.325" font-family="微软雅黑" font-weight="bold" font-style="normal" text-decoration="none" family="微软雅黑" text-anchor="middle" size="13">screen模块</text></g></g><g id="ProcessOnG1088" transform="matrix(1.0,0.0,0.0,1.0,656.3999938964844,237.1999969482422)" opacity="1.0"><path id="ProcessOnPath1089" d="M100.0 0.0Q91.0 0.0 91.0 9.0L91.0 61.0Q91.0 70.0 78.0 70.0Q91.0 70.0 91.0 79.0L91.0 131.0Q91.0 140.0 100.0 140.0" stroke="#323232" stroke-width="2.0" stroke-dasharray="none" opacity="1.0" fill="none"/><path id="ProcessOnPath1090" d="M0.0 0.0L100.0 0.0L100.0 140.0L0.0 140.0Z" stroke="none" stroke-width="0.0" stroke-dasharray="none" opacity="1.0" fill="none"/></g><g id="ProcessOnG1091" transform="matrix(1.0,0.0,0.0,1.0,756.3999938964844,247.1999969482422)" opacity="1.0"><path id="ProcessOnPath1092" d="M0.0 0.0L164.0 0.0L164.0 104.0L0.0 104.0Z" stroke="none" stroke-width="0.0" stroke-dasharray="none" opacity="1.0" fill="none"/><g id="ProcessOnG1093" transform="matrix(1.0,0.0,0.0,1.0,0.0,3.25)"><text id="ProcessOnText1094" fill="#000000" font-size="13" x="0.0" y="13.325" font-family="微软雅黑" font-weight="normal" font-style="normal" text-decoration="none" family="微软雅黑" text-anchor="start" size="13">桌面图像的获取</text><text id="ProcessOnText1095" fill="#000000" font-size="13" x="0.0" y="29.575" font-family="微软雅黑" font-weight="normal" font-style="normal" text-decoration="none" family="微软雅黑" text-anchor="start" size="13"></text><text id="ProcessOnText1096" fill="#000000" font-size="13" x="0.0" y="45.825" font-family="微软雅黑" font-weight="normal" font-style="normal" text-decoration="none" family="微软雅黑" text-anchor="start" size="13"></text><text id="ProcessOnText1097" fill="#000000" font-size="13" x="0.0" y="62.075" font-family="微软雅黑" font-weight="normal" font-style="normal" text-decoration="none" family="微软雅黑" text-anchor="start" size="13"></text><text id="ProcessOnText1098" fill="#000000" font-size="13" x="0.0" y="78.325" font-family="微软雅黑" font-weight="normal" font-style="normal" text-decoration="none" family="微软雅黑" text-anchor="start" size="13">桌面图像在screenShot窗口</text><text id="ProcessOnText1099" fill="#000000" font-size="13" x="0.0" y="94.575" font-family="微软雅黑" font-weight="normal" font-style="normal" text-decoration="none" family="微软雅黑" text-anchor="start" size="13">的绘制</text></g></g><g id="ProcessOnG1100" transform="matrix(1.0,0.0,0.0,1.0,619.3999938964844,419.00001525878906)" opacity="1.0"><path id="ProcessOnPath1101" d="M0.0 4.0Q0.0 0.0 4.0 0.0L96.0 0.0Q100.0 0.0 100.0 4.0L100.0 66.0Q100.0 70.0 96.0 70.0L4.0 70.0Q0.0 70.0 0.0 66.0Z" stroke="#323232" stroke-width="2.0" stroke-dasharray="none" opacity="1.0" fill="#ffffff"/><g id="ProcessOnG1102" transform="matrix(1.0,0.0,0.0,1.0,10.0,26.875)"><text id="ProcessOnText1103" fill="#000000" font-size="13" x="39.0" y="13.325" font-family="微软雅黑" font-weight="bold" font-style="normal" text-decoration="none" family="微软雅黑" text-anchor="middle" size="13">capture模块</text></g></g><g id="ProcessOnG1104" transform="matrix(1.0,0.0,0.0,1.0,656.3999938964844,384.00001525878906)" opacity="1.0"><path id="ProcessOnPath1105" d="M100.0 0.0Q91.0 0.0 91.0 9.0L91.0 61.0Q91.0 70.0 78.0 70.0Q91.0 70.0 91.0 79.0L91.0 131.0Q91.0 140.0 100.0 140.0" stroke="#323232" stroke-width="2.0" stroke-dasharray="none" opacity="1.0" fill="none"/><path id="ProcessOnPath1106" d="M0.0 0.0L100.0 0.0L100.0 140.0L0.0 140.0Z" stroke="none" stroke-width="0.0" stroke-dasharray="none" opacity="1.0" fill="none"/></g><g id="ProcessOnG1107" transform="matrix(1.0,0.0,0.0,1.0,756.3999938964844,402.00001525878906)" opacity="1.0"><path id="ProcessOnPath1108" d="M0.0 0.0L164.0 0.0L164.0 104.0L0.0 104.0Z" stroke="none" stroke-width="0.0" stroke-dasharray="none" opacity="1.0" fill="none"/><g id="ProcessOnG1109" transform="matrix(1.0,0.0,0.0,1.0,0.0,11.375)"><text id="ProcessOnText1110" fill="#000000" font-size="13" x="0.0" y="13.325" font-family="微软雅黑" font-weight="normal" font-style="normal" text-decoration="none" family="微软雅黑" text-anchor="start" size="13">图像的截取</text><text id="ProcessOnText1111" fill="#000000" font-size="13" x="0.0" y="29.575" font-family="微软雅黑" font-weight="normal" font-style="normal" text-decoration="none" family="微软雅黑" text-anchor="start" size="13"></text><text id="ProcessOnText1112" fill="#000000" font-size="13" x="0.0" y="45.825" font-family="微软雅黑" font-weight="normal" font-style="normal" text-decoration="none" family="微软雅黑" text-anchor="start" size="13">图像的保存</text><text id="ProcessOnText1113" fill="#000000" font-size="13" x="0.0" y="62.075" font-family="微软雅黑" font-weight="normal" font-style="normal" text-decoration="none" family="微软雅黑" text-anchor="start" size="13"></text><text id="ProcessOnText1114" fill="#000000" font-size="13" x="0.0" y="78.325" font-family="微软雅黑" font-weight="normal" font-style="normal" text-decoration="none" family="微软雅黑" text-anchor="start" size="13">图像的处理</text></g></g></g></g></svg>